<svg width="22" height="20" viewBox="0 0 22 20" fill="none" xmlns="http://www.w3.org/2000/svg">
<path d="M7.36302 19.6351C8.26667 19.6351 8.99923 18.9025 8.99923 17.9989C8.99923 17.0952 8.26667 16.3627 7.36302 16.3627C6.45936 16.3627 5.72681 17.0952 5.72681 17.9989C5.72681 18.9025 6.45936 19.6351 7.36302 19.6351Z" fill="white"/>
<path d="M18.8166 19.6351C19.7203 19.6351 20.4528 18.9025 20.4528 17.9989C20.4528 17.0952 19.7203 16.3627 18.8166 16.3627C17.913 16.3627 17.1804 17.0952 17.1804 17.9989C17.1804 18.9025 17.913 19.6351 18.8166 19.6351Z" fill="white"/>
<path d="M21.7207 2.90325C21.6058 2.76267 21.461 2.64944 21.2968 2.57179C21.1327 2.49413 20.9533 2.45401 20.7717 2.45432H5.2098L4.89636 0.67596C4.86294 0.486532 4.76384 0.314938 4.61647 0.191318C4.4691 0.0676984 4.28288 -4.04152e-05 4.09053 1.80905e-08H0.818106C0.601131 1.80905e-08 0.393042 0.0861933 0.239618 0.239618C0.086193 0.393043 0 0.601131 0 0.818106C0 1.03508 0.086193 1.24317 0.239618 1.39659C0.393042 1.55002 0.601131 1.63621 0.818106 1.63621H3.40434L5.73901 14.8681C5.77243 15.0575 5.87153 15.2291 6.01891 15.3527C6.16628 15.4763 6.35249 15.5441 6.54485 15.544H19.6345C19.8515 15.544 20.0596 15.4578 20.213 15.3044C20.3665 15.151 20.4526 14.9429 20.4526 14.7259C20.4526 14.5089 20.3665 14.3008 20.213 14.1474C20.0596 13.994 19.8515 13.9078 19.6345 13.9078H7.23103L6.94265 12.2716H19.2991C19.5828 12.2712 19.8577 12.1729 20.0772 11.9931C20.2968 11.8134 20.4474 11.5633 20.5038 11.2853L21.9764 3.92231C22.0119 3.74412 22.0073 3.56027 21.9631 3.38404C21.9189 3.20781 21.8361 3.04359 21.7207 2.90325Z" fill="white"/>
</svg>
