<svg width="40" height="40" viewBox="0 0 40 40" fill="none" xmlns="http://www.w3.org/2000/svg">
<g clip-path="url(#clip0_2269_5672)">
<path d="M20.2129 0.149536C31.475 0.567592 39.6458 9.31065 39.7666 20.1699C39.3393 31.6046 30.424 39.6639 19.7356 39.7375C8.58189 39.3551 0.305964 30.6893 0.159668 19.7352C0.623094 8.19583 9.54902 0.239351 20.2129 0.149536ZM19.9527 4.25046C11.3013 4.29583 4.32958 11.1745 4.27726 19.8574C4.22448 28.6208 11.2564 35.6421 19.9805 35.6343C28.656 35.6264 35.5963 28.7028 35.655 20.0644C35.7152 11.2398 28.6518 4.27963 19.9527 4.25046Z" fill="#E10600"/>
<path d="M15.3797 25.2245C16.3575 24.2555 17.2821 23.3458 18.2001 22.4291C21.302 19.3324 24.402 16.2338 27.501 13.1342C27.9098 12.7254 28.3594 12.3893 28.9543 12.3291C29.82 12.2416 30.6196 12.6759 30.9895 13.4176C31.3756 14.1907 31.2677 15.0801 30.6534 15.724C29.8654 16.5504 29.0473 17.3481 28.2399 18.156C24.5617 21.8361 20.8825 25.5157 17.2034 29.1944C17.0584 29.3393 16.9163 29.4898 16.7552 29.6148C15.8918 30.2861 15.0654 30.2953 14.208 29.6689C14.0122 29.5259 13.8376 29.3514 13.6654 29.1791C12.3594 27.8759 11.0557 26.5699 9.75289 25.2639C9.59456 25.1051 9.44688 24.9352 9.28715 24.7773C8.56076 24.0606 8.62604 22.9162 8.9978 22.3115C9.47928 21.5277 10.3779 21.1541 11.308 21.4523C11.6802 21.5717 12.0362 21.8328 12.3233 22.1088C13.301 23.049 14.2459 24.024 15.201 24.9879C15.2691 25.0564 15.3191 25.1426 15.3802 25.2236L15.3797 25.2245Z" fill="#E10600"/>
</g>
<defs>
<clipPath id="clip0_2269_5672">
<rect width="40" height="40" fill="white"/>
</clipPath>
</defs>
</svg>
