<svg width="12" height="12" viewBox="0 0 12 12" fill="none" xmlns="http://www.w3.org/2000/svg">
<path d="M11.528 11.528C10.8987 12.1573 9.87842 12.1573 9.24912 11.528L5.92103 8.19993L2.87497 11.246C2.28929 11.8317 1.3397 11.8317 0.754017 11.246C0.168331 10.6603 0.168331 9.71071 0.754017 9.12503L3.80007 6.07897L0.471976 2.75088C-0.157325 2.12158 -0.157326 1.10128 0.471975 0.471976C1.10128 -0.157325 2.12158 -0.157325 2.75088 0.471976L6.07897 3.80007L9.14759 0.731454C9.73328 0.145768 10.6829 0.145768 11.2685 0.731454C11.8542 1.31714 11.8542 2.26672 11.2685 2.85241L8.19993 5.92103L11.528 9.24912C12.1573 9.87842 12.1573 10.8987 11.528 11.528Z" fill="white"/>
</svg>
