<?xml version="1.0" encoding="UTF-8"?><svg id="Layer_1" xmlns="http://www.w3.org/2000/svg" viewBox="0 0 864 864"><defs><style>.cls-1{fill:#fff;}</style></defs><path class="cls-1" d="m253.43,4.92c18.57,3.85,31.97,15.46,44.95,28.48,117.51,117.84,235.22,235.47,352.95,353.08,18.53,18.51,26.31,40.05,17.35,65.22-3.23,9.09-9.21,18.01-16.06,24.89-120.96,121.47-242.22,242.64-363.49,363.8-18.39,18.37-40.43,24.6-65.01,15.42-23.09-8.62-36.17-26.3-38.6-50.92-1.97-19.9,6.02-36.25,19.96-50.12,29.2-29.05,58.27-58.22,87.4-87.34,75.96-75.95,151.92-151.91,227.92-227.82,2.15-2.15,4.8-3.79,8.69-9.34-2.91-1.67-6.35-2.8-8.64-5.09-104.98-104.79-209.84-209.69-314.76-314.53-17.97-17.96-25.68-38.77-17.89-63.73,6.14-19.67,19.4-32.62,39.06-38.94,3.15-1.01,6.3-2.03,9.45-3.05,5.57,0,11.13,0,16.7,0Z"/></svg>