<?xml version="1.0" encoding="utf-8"?>
<!-- Generator: Adobe Illustrator 27.5.0, SVG Export Plug-In . SVG Version: 6.00 Build 0)  -->
<svg version="1.1" id="Layer_1" xmlns="http://www.w3.org/2000/svg" xmlns:xlink="http://www.w3.org/1999/xlink" x="0px" y="0px"
	 viewBox="0 0 864 864" style="enable-background:new 0 0 864 864;" xml:space="preserve">
<style type="text/css">
	.st0{fill:#E10600;}
</style>
<path class="st0" d="M436.6,3.2c243.3,9,419.7,197.9,422.4,432.4c-9.2,247-201.8,421.1-432.7,422.7C185.4,850.1,6.6,662.9,3.5,426.3
	C13.5,177,206.3,5.2,436.6,3.2z M431,91.8c-186.9,1-337.5,149.6-338.6,337.1c-1.1,189.3,150.8,341,339.2,340.8
	C619,769.5,768.9,620,770.2,433.4C771.5,242.8,618.9,92.4,431,91.8L431,91.8z"/>
<path class="st0" d="M332.2,544.8c21.1-20.9,41.1-40.6,60.9-60.4c67-66.9,134-133.8,200.9-200.8c8.8-8.8,18.5-16.1,31.4-17.4
	c18.7-1.9,36,7.5,44,23.5c8.3,16.7,6,35.9-7.3,49.8c-17,17.9-34.7,35.1-52.1,52.5c-79.5,79.5-158.9,159-238.4,238.4
	c-3.1,3.1-6.2,6.4-9.7,9.1c-18.6,14.5-36.5,14.7-55,1.2c-4.2-3.1-8-6.9-11.7-10.6c-28.2-28.2-56.4-56.4-84.5-84.6
	c-3.4-3.4-6.6-7.1-10.1-10.5c-15.7-15.5-14.3-40.2-6.2-53.3c10.4-16.9,29.8-25,49.9-18.6c8,2.6,15.7,8.2,21.9,14.2
	c21.1,20.3,41.5,41.4,62.2,62.2C329.8,541.2,330.9,543.1,332.2,544.8L332.2,544.8z"/>
</svg>
