<?xml version="1.0" encoding="utf-8"?>
<!-- Generator: Adobe Illustrator 27.5.0, SVG Export Plug-In . SVG Version: 6.00 Build 0)  -->
<svg version="1.1" id="Layer_1" xmlns="http://www.w3.org/2000/svg" xmlns:xlink="http://www.w3.org/1999/xlink" x="0px" y="0px"
	 viewBox="0 0 864 864" style="enable-background:new 0 0 864 864;" xml:space="preserve">
<style type="text/css">
	.st0{fill:#E10600;}
</style>
<path class="st0" d="M27.5,439.1C27.5,216.4,209.3,34.7,432,34.7c222.9,0,404.7,181.9,404.5,405c-0.1,222.6-182.1,404.2-404.8,404.1
	C209.1,843.7,27.4,661.9,27.5,439.1L27.5,439.1z M110.4,438.7c-0.2,178,142.8,321.7,320.4,322.1c178.6,0.4,322.5-142.6,322.8-320.8
	c0.3-178.3-142.8-322.1-320.7-322.4C254.3,117.4,110.6,260.5,110.4,438.7L110.4,438.7z"/>
<path class="st0" d="M465.3,303.5c0,41.6,0.1,83.3-0.1,124.9c0,5.8,1.5,8.6,7,10.9c67.7,28.9,135.2,58.1,202.7,87.2
	c14.9,6.4,22,20.7,18.5,36.6c-3.6,16.2-17.6,28.1-32.8,27.5c-3.8-0.2-7.8-1.2-11.3-2.7c-76.8-32.9-153.5-66-230.1-99.1
	c-14.2-6.1-20.1-18.3-20.3-33c-0.4-28.5-0.1-57-0.1-85.4c0-64.2,0-128.5,0-192.7c0-17.6,11.4-31.1,28-33.7
	C447,141,465,156,465.2,176.5c0.2,28.6,0.1,57.3,0.1,86C465.3,276.1,465.3,289.9,465.3,303.5L465.3,303.5z"/>
</svg>
