<?xml version="1.0" encoding="utf-8"?>
<!-- Generator: Adobe Illustrator 27.5.0, SVG Export Plug-In . SVG Version: 6.00 Build 0)  -->
<svg version="1.1" id="Layer_1" xmlns="http://www.w3.org/2000/svg" xmlns:xlink="http://www.w3.org/1999/xlink" x="0px" y="0px"
	 viewBox="0 0 864 864" style="enable-background:new 0 0 864 864;" xml:space="preserve">
<style type="text/css">
	.st0{fill:#FFFFFF;}
</style>
<path class="st0" d="M337.1,719.7c7.4,44.5-15.9,72-47.4,94.8c-50.9,36.9-108.4,49.7-170.2,45.8c-14.2-0.9-28.3-3.5-42.1-6.9
	c-8.3-2-16.7-5.8-23.7-10.6c-14-9.6-12.8-28.1,2.7-34.5c36-14.8,56.1-42.3,67.3-78.3c7.5-24.2,16.3-48,31.7-68.7
	c21.6-29.2,48.7-46.4,87.6-40c0.6-20.8,14.1-33.3,28.1-45.9c19-17.1,37.6-34.7,59.4-54.7c-4.2-2.6-8.1-4.1-10.8-6.8
	c-63.5-63.4-126.6-127-190.2-190.2c-26.5-26.3-36.6-57.3-23.8-92.4c13.1-35.6,39.5-58.5,78.3-63.2c25.1-3.1,47.5,5.1,66,22.6
	c13.4,12.7,26.3,26.1,39.4,39.2c54.3,54.4,108.7,108.8,162.9,163.3c2.3,2.3,3.8,5.3,6.2,8.7c4.4-3.8,7-5.9,9.5-8.2
	c75.1-69.4,150.3-138.9,225.4-208.4c26.1-24.1,59-23.8,83.3,0.6c24.1,24.2,24.6,57.1,0.9,82.9C644.7,413.2,511.7,557.4,378.9,701.9
	C367.9,713.8,355,720.5,337.1,719.7L337.1,719.7z M341.9,681.5c3.5-3,7.6-6,10.9-9.6c105.3-114.1,210.5-228.3,315.7-342.5
	c27.1-29.4,54.2-58.7,81.1-88.3c8.7-9.5,8.1-18.6-0.7-27.5c-8.6-8.6-18-8.9-27.5-0.7c-2,1.7-3.9,3.5-5.8,5.2
	C573.7,349.3,431.9,480.6,289.8,611.6c-7.4,6.8-8.4,13.2-4.1,21.4c10.1,19.3,24.6,34.1,43.9,44.2
	C332.9,678.8,336.8,679.7,341.9,681.5L341.9,681.5z M221.3,356.8c45.5,45.5,91.2,91.4,137.5,137.7c23.4-21.7,47.6-44.1,70.5-65.3
	c-47.3-47.4-94-94.2-140.1-140.4C266.9,311.2,243.8,334.3,221.3,356.8L221.3,356.8z M114,818.8c0.4,1.2,0.7,2.5,1.1,3.7
	c20.6-1.2,41.3-1,61.7-3.9c41.4-5.8,78.3-22.2,108.6-51.9c13.6-13.4,17.6-29.1,11-47.1c-8.3-22.4-22.3-40.2-43.1-52.1
	c-24.3-13.9-42.9-10.4-61.2,10.8c-14.1,16.4-21.7,36-28.4,56.1C153.1,766,140.6,796.5,114,818.8L114,818.8z M261.4,256.5
	c-11.1-10.8-22.6-21.3-33.3-32.6c-34.1-36.4-77.4-8.4-86.9,24c-4,13.6-2.2,27.4,7.2,37.7c13.5,14.8,28.9,27.8,42.8,41
	C213.6,304.4,236.9,281,261.4,256.5L261.4,256.5z"/>
<path class="st0" d="M572.4,571.7c9.9-11.5,18.1-21.1,27.3-31.8c6.8,7,12.7,13.4,18.8,19.6c22.7,22.8,44.1,47,68.4,67.9
	c33.6,28.8,49.1,67.8,64.9,106.7c11.2,27.6,20.6,56,30.9,84c3.5,9.5,0.9,16.9-5.7,23.9c-7.1,7.6-14.8,13.3-25.6,9.6
	c-51.7-17.9-103.6-35.4-151.5-62.5c-8.6-4.9-16.7-11.3-23.8-18.3c-31.2-30.7-62.1-61.8-93.8-93.6c8.4-9.8,16.5-19.4,25.6-30
	c26.6,27.5,52.9,54.5,79,81.4c25-25,48.1-48.1,71.5-71.4C630,628.9,601.3,600.4,572.4,571.7L572.4,571.7z M689.4,687.4
	c-24.3,23.8-46.8,45.8-71.2,69.7c39,16.2,77.6,32.2,116.1,48.1c0.9-1.1,1.8-2.1,2.7-3.2C721,763.6,705,725.1,689.4,687.4
	L689.4,687.4z"/>
<path class="st0" d="M544.2,206.7c-3.1-4.4-5.7-6.8-6.7-9.7c-4.8-13.4-9.6-26.9-13.4-40.6c-2.1-7.5-6.2-11.1-13.4-13.1
	c-13-3.8-25.9-8.3-38.6-13c-3.2-1.2-5.7-4.3-8.5-6.5c3-2.4,5.6-5.9,9-7.2c12.7-4.8,25.6-9.3,38.7-12.9c7.6-2.1,11-6.3,13.1-13.5
	c3.9-13.4,8.5-26.6,13.2-39.7c1.1-3,4.1-5.2,6.2-7.8c2.4,2.7,5.7,5,6.9,8.1c4.8,13.1,9.5,26.3,13.2,39.7c2.1,7.5,6.1,11.1,13.4,13.1
	c13.4,3.8,26.5,8.4,39.6,13.2c3,1.1,5.2,4.1,7.8,6.3c-2.7,2.4-5,5.8-8.1,6.9c-14,5.1-28.3,9.2-42.2,14.6c-3.8,1.5-7.9,5.5-9.3,9.4
	c-5.3,13.9-9.4,28.3-14.3,42.4C549.5,199.4,547.1,202,544.2,206.7L544.2,206.7z"/>
<path class="st0" d="M740.8,99.2c-2.7-7.8-6.2-15.4-8-23.4c-1.9-8.4-6.5-12.5-14.6-14.5c-8-2-15.6-5.3-23.3-8
	c-0.1-1.2-0.2-2.3-0.3-3.5c6-2.2,11.8-5.5,18-6.5c12.8-2.2,19.7-9,22-21.8c1.2-6.4,4.4-12.4,6.7-18.5c1.1,0,2.2,0,3.2,0
	c2.6,7.4,6,14.6,7.7,22.2c2.2,9.8,7.4,14.9,17.1,16.9c7.3,1.5,14.3,4.7,21.5,7.2c0,1.2,0.1,2.5,0.1,3.8c-7.3,2.7-14.4,6.4-21.9,7.8
	c-10,2-14.7,7.6-16.9,17.1c-1.8,7.3-4.9,14.2-7.5,21.3C743.5,99.3,742.1,99.3,740.8,99.2L740.8,99.2z"/>
</svg>
