<?xml version="1.0" encoding="utf-8"?>
<!-- Generator: Adobe Illustrator 27.5.0, SVG Export Plug-In . SVG Version: 6.00 Build 0)  -->
<svg version="1.1" id="Layer_1" xmlns="http://www.w3.org/2000/svg" xmlns:xlink="http://www.w3.org/1999/xlink" x="0px" y="0px"
	 viewBox="0 0 864 864" style="enable-background:new 0 0 864 864;" xml:space="preserve">
<style type="text/css">
	.st0{fill:#FFFFFF;}
</style>
<path class="st0" d="M108.3,192.7H275c-28.5-32.2-55.6-63-83.6-94.7c-5.4,6-9.9,11.3-14.6,16.4c-8.3,8.9-18.1,10.3-25.5,3.7
	c-7.7-6.8-7.6-16.3,0.1-25.6c0.5-0.6,1.1-1.1,1.4-1.7c17.5-28.5,42.2-36.1,75.8-35.6c146.3,2,292.6,1,439,0.7
	c11.8,0,20.2,3.5,28,12.4c36.4,41.9,73.4,83.2,110.1,124.8c12,13.6,12.1,18.2,1.4,33.2C688.7,392.4,570.4,558.4,452,724.5
	c-12.4,17.4-23.2,17.5-35.6,0.2C297.8,558.3,179.2,391.9,60.6,225.6c-10.6-14.8-10.3-18.5,1.5-32c8.6-9.8,17.1-19.6,25.9-29.3
	c9.1-10.1,18.2-11.5,26.1-4.4c7.9,7.1,7.6,15.9-0.9,26.4C111.8,188,110.5,189.7,108.3,192.7L108.3,192.7z M433.1,644.1
	c0.7-0.1,1.4-0.2,2-0.2c32.9-138.6,65.9-277.3,99-416.6H334C367.1,366.6,400.1,505.3,433.1,644.1L433.1,644.1z M396.6,639.3
	c-0.5-4.3-0.4-5.7-0.8-7c-31.4-132-62.9-264-94-396.1c-1.9-8.1-5.4-9.6-12.8-9.5c-58.5,0.3-116.9,0.1-175.4,0.2
	c-3.1,0-6.1,0.5-10.6,0.8C201.1,365,298,501,396.6,639.3z M471.9,634.1c0.9,0.3,1.7,0.7,2.6,1.1c96.6-135.5,193.2-271,290.7-407.8
	H568.5C536.3,362.9,504.1,498.5,471.9,634.1L471.9,634.1z M229.1,90.1c28.7,32.4,55.9,63.2,83.6,94.6c27.8-31.5,55-62.2,83.5-94.6
	H229.1L229.1,90.1z M471.7,89.9c29,32.7,56.2,63.4,83.8,94.7c28.2-31.9,55.2-62.6,83.5-94.7C639.1,90,471.7,90,471.7,89.9z
	 M676.8,98c-28,31.8-55.3,62.6-83.4,94.5h167C732,160.3,704.8,129.6,676.8,98L676.8,98z M434.1,98c-28.2,32-55.4,62.7-83.7,94.7
	h167.4C489.4,160.5,462.2,129.8,434.1,98L434.1,98z"/>
<path class="st0" d="M229.2,576.2c-0.2,10.1-7.4,16-20.9,16.8c-28.5,1.8-50.6,15-64.8,39.5c-5.4,9.4-7.6,20.7-10.8,31.3
	c-1.2,3.9-0.8,8.1-1.5,12.2c-1.4,8.4-6.6,13.3-15.1,13.8c-9,0.5-15.2-3.8-17.1-12.7c-1.8-8.3-1.8-17.1-4-25.3
	c-8.8-33-38-56.5-72.1-58.7c-3-0.2-6-0.2-8.8-1c-8.6-2.2-13.4-7.9-13-17c0.5-9,5.7-14.2,14.6-15.5c7.3-1.1,14.9-1.4,22-3.2
	c33.9-8.8,57.3-37.3,60-72.2c0.2-3,0.4-6,1.1-8.9c2-8.8,7.9-13.7,16.7-13.4c8.8,0.3,14.4,5.5,15.7,14.5c1,7,1.2,14.2,2.9,21
	c8.5,35.3,36.8,58.2,75.7,61.9C222.6,560.4,229.3,566.4,229.2,576.2L229.2,576.2z M86.4,576.1c8.2,8.5,19.8,20.7,27.9,29.1
	c9.1-8.9,21.2-20.7,29.3-28.7c-8.7-8.6-21-20.6-29-28.6C106.4,556.1,94.4,568.1,86.4,576.1z"/>
<path class="st0" d="M721,720.8c-0.1,9.8-6,15.7-18.4,16.7c-15.6,1.2-30.1,6.1-38.7,19c-6.8,10.1-10.9,22.4-13.8,34.3
	c-2.8,11.3-7.7,18.1-17.4,17.9c-9.2-0.2-15.4-6.8-16.5-17.7c-3.3-32.1-20.2-49.4-52.4-53.5c-12.1-1.5-18.7-7.3-19-16.5
	c-0.3-9.6,6.6-15.8,19.2-17.4c31.9-4,48.8-21.3,52.2-53.7c1.1-10.8,7.4-17.3,16.7-17.4c9.5-0.1,15.7,6.2,16.8,17.1
	c3.4,32.6,20.3,49.8,53.2,54.1C715.1,705.5,721,711,721,720.8L721,720.8z M635.1,705.4c-6.6,5.1-13.6,10.4-19.3,14.7
	c6.3,6.3,12.3,12.2,16.8,16.7c5.8-5,12.4-10.8,18.1-15.7C644.5,714.9,638.8,709.1,635.1,705.4L635.1,705.4z"/>
<path class="st0" d="M778.2,441.2c7.6,0.9,13,5.8,14.3,15.3c5.1,36.9,19.5,51.4,56,56.2c9.4,1.2,15,6.3,15.5,15.9
	c0.5,9.7-5.1,15.2-14.2,17.1c-4.7,1-9.7,0.6-14.3,1.7c-24.1,5.6-40,24.7-42.7,51c-1.3,12.5-7.5,19.5-17.2,19.2
	c-9.6-0.3-15.5-7.5-16.6-20.1c-2.3-28.5-22.7-48.9-51-51.2c-12.8-1-19.8-6.7-20.3-16.3c-0.5-9.9,6.4-16,20-17.4
	c29.4-3.2,48.7-22.9,51.3-52.3C760.2,447.6,766.2,441,778.2,441.2L778.2,441.2z M758.9,528.1c6,6.5,11.8,12.7,16.8,18.1
	c5.5-5.2,11.9-11.3,16.6-15.8c-5.2-6.3-10.8-13-16-19.4C770,517.2,763.9,523.2,758.9,528.1L758.9,528.1z"/>
<path class="st0" d="M86.4,576.1c8-8,20-20,28.2-28.1c8.1,8,20.3,20,29,28.6c-8.2,8-20.2,19.8-29.3,28.7
	C106.2,596.8,94.5,584.6,86.4,576.1z"/>
<path class="st0" d="M635.1,705.3c3.7,3.8,9.4,9.6,15.5,15.8c-5.7,4.9-12.2,10.6-18.1,15.7c-4.5-4.5-10.4-10.4-16.8-16.7
	C621.5,715.7,628.5,710.4,635.1,705.3L635.1,705.3z"/>
<path class="st0" d="M758.9,528.1c5.1-5,11.1-10.9,17.4-17.1c5.2,6.3,10.8,13.1,16,19.4c-4.7,4.5-11.1,10.5-16.6,15.8
	C770.7,540.8,764.9,534.6,758.9,528.1L758.9,528.1z"/>
</svg>
