<?xml version="1.0" encoding="utf-8"?>
<!-- Generator: Adobe Illustrator 27.5.0, SVG Export Plug-In . SVG Version: 6.00 Build 0)  -->
<svg version="1.1" id="Layer_1" xmlns="http://www.w3.org/2000/svg" xmlns:xlink="http://www.w3.org/1999/xlink" x="0px" y="0px"
	 viewBox="0 0 864 864" style="enable-background:new 0 0 864 864;" xml:space="preserve">
<style type="text/css">
	.st0{fill:#FFFFFF;}
</style>
<path class="st0" d="M858.3,403.7v50.3c-0.5,2.7-1.1,5.4-1.5,8c-3.2,21.2-4.7,42.9-9.9,63.5C807.1,681.3,710.3,785,558.7,837.2
	c-24.5,8.4-50.6,12.5-76.6,18.7V518h102.6c5.2-40.2,10.3-79.3,15.5-119.7H481.9c0-29.8-0.5-58.5,0.3-87.2c0.2-8.1,2.6-16.7,6.2-24
	c7.8-16.1,23-21.4,39.5-22.2c22.3-1.1,44.7-0.8,67-1.2c2.9,0,5.9-0.3,9.3-0.5c0-34.4,0.1-67.9-0.3-101.4c0-2-3.7-5.5-5.8-5.6
	c-33.7-1.5-67.5-4.1-101.2-3.3c-32.7,0.7-63,11.4-88.5,32.9c-33,27.9-47.2,65.1-49.5,107c-1.7,31.8-0.9,63.6-1.2,95.5
	c0,3.2,0,6.5,0,10.7H255v119.8h102.2v331.7c-1,0.2-1.5,0.5-2,0.5c-1.1-0.1-2.2-0.3-3.3-0.5c-68.4-12.8-130.1-40.5-185.2-83.1
	C101.2,716.5,53.9,652.2,26,574.5c-36.8-102.6-34.4-205.2,5.8-306.6C93.2,112.9,247.1,5.1,413.7,0.2C490.9-2.1,564.3,13.5,631.9,51
	C752.3,117.9,825.9,219.3,851.6,355C854.7,371,856.1,387.4,858.3,403.7L858.3,403.7z"/>
</svg>
