<?xml version="1.0" encoding="utf-8"?>
<!-- Generator: Adobe Illustrator 27.5.0, SVG Export Plug-In . SVG Version: 6.00 Build 0)  -->
<svg version="1.1" id="Layer_1" xmlns="http://www.w3.org/2000/svg" xmlns:xlink="http://www.w3.org/1999/xlink" x="0px" y="0px"
	 viewBox="0 0 864 864" style="enable-background:new 0 0 864 864;" xml:space="preserve">
<style type="text/css">
	.st0{fill:#FFFFFF;}
</style>
<path class="st0" d="M458.7,860.8h-53.6c-2.4-0.5-4.8-1.2-7.3-1.4c-90-7.3-171.1-38.5-239.2-97.5C29.5,649.8-20,508.1,13.6,340.3
	c38-190.1,211.5-332.7,405.3-337C502,1.5,580.1,20.2,651.1,63.7c111,67.9,178.9,166.2,202.9,294.4c2.9,15.6,4.4,31.4,6.6,47.1v53.6
	c-0.5,2.1-1.2,4.3-1.4,6.5c-6.3,81.9-33.7,156.1-82.9,221.7c-68.2,90.9-158.5,147-270.6,167.3C490.2,857.1,474.4,858.6,458.7,860.8
	L458.7,860.8z M426.1,650.9c37.6-1.1,69.4-2,101.2-3c4.7-0.2,9.4-0.9,14.1-1.5c54-6.5,91.5-39.2,102.2-92.3
	c4.4-22,5.6-44.9,5.6-67.4c-0.1-54.4,0.4-108.9-3.4-163.1c-4-56.8-40.4-95.1-96.6-104c-29-4.6-58.9-5.2-88.4-5.2
	c-46,0-92.2-0.2-137.9,3.8c-48.7,4.3-83.9,30.2-99.2,78.5c-3.9,12.4-7.1,25.6-7.2,38.5c-0.7,64.4-2.1,128.9,0.1,193.3
	c2.4,68.8,41.7,110.3,110,118C361.4,650.4,396.8,649.7,426.1,650.9L426.1,650.9z"/>
<path class="st0" d="M611.9,431.3c-1.3,33.8-1.7,66.8-4.1,99.6c-3.5,46.9-30,74.3-76.9,76.8c-50.1,2.6-100.4,2.3-150.6,2.5
	c-19.2,0-38.6-0.7-57.5-3.8c-40.8-6.8-64.2-31.7-66.3-73.3c-2.6-50.7-2.5-101.5-2.7-152.3c-0.1-19.2,0.6-38.7,3.8-57.5
	c7-41.4,31.7-64.7,73.7-66.8c51-2.5,102.1-2.4,153.1-2.6c18.9-0.1,38.1,0.7,56.7,3.8c40.7,6.9,63.4,31.9,66.5,73.3
	C610.1,364.6,610.6,398.4,611.9,431.3L611.9,431.3z M320.1,431.9c-0.1,61.4,50.3,111.9,111.7,112c61.4,0.1,111.9-50.3,111.9-111.8
	c0.1-61.4-50.3-111.9-111.7-112C370.6,320.1,320.2,370.4,320.1,431.9L320.1,431.9z M548.5,341.8c14.2-0.2,26-12.1,25.7-26.4
	c-0.2-14.1-12.4-25.9-26.5-25.7c-14.2,0.2-25.7,12.1-25.5,26.5C522.3,330.7,533.9,342,548.5,341.8L548.5,341.8z"/>
<path class="st0" d="M504.2,432.4c-0.2,40.1-32.2,72-72.5,72c-40.5,0-72.5-32.5-72.2-73.1c0.4-40.1,32.6-71.8,72.9-71.5
	C472.6,359.9,504.4,392.1,504.2,432.4L504.2,432.4z"/>
</svg>
