<?xml version="1.0" encoding="utf-8"?>
<!-- Generator: Adobe Illustrator 27.5.0, SVG Export Plug-In . SVG Version: 6.00 Build 0)  -->
<svg version="1.1" id="Layer_1" xmlns="http://www.w3.org/2000/svg" xmlns:xlink="http://www.w3.org/1999/xlink" x="0px" y="0px"
	 viewBox="0 0 864 864" style="enable-background:new 0 0 864 864;" xml:space="preserve">
<style type="text/css">
	.st0{fill:#FFFFFF;}
</style>
<path class="st0" d="M691.6,176.4c-1.9,6.4-3.4,13-5.8,19.2c-10.5,27.2-8.3,37.2,13.3,57c2.4,2.2,4.8,4.3,7,6.7
	c14.6,15.7,14.2,37.8-1,52.8c-4.6,4.5-9.6,8.6-14,13.3c-11.1,11.9-13.9,25.7-8.5,41.1c1.8,5.1,4.1,10.1,5.9,15.3
	c7.4,20.8-2.6,41.7-23.3,49.1c-2.1,0.8-4.3,1.3-6.5,1.8c-28.4,7.2-36.8,17.7-38.1,47.4c-1.2,28.4-20.2,44.1-48.2,39.5
	c-3.2-0.5-6.3-1.2-9.5-1.8c-18.4-3-32.9,3.6-42.6,19.5c-2.8,4.7-5.3,9.5-8.2,14.2c-11,17.7-32.6,23-50.5,12.2
	c-3.6-2.2-6.8-4.9-10.1-7.4c-17-13-32.5-12.9-50.8-1.5c-8.8,5.5-18.5,10.9-28.4,12.7c-15.2,2.7-27.4-4.7-35.3-18.3
	c-1.1-2-2.2-3.9-3.3-5.9c-14.6-25.6-25-30.4-53.6-24.8c-26.1,5.1-44.1-7.5-48.4-33.7c-1.1-7-2.1-14-3.6-20.9
	c-3.2-14.7-11.9-24.7-26.3-29.4c-4.6-1.5-9.3-2.4-14-3.8c-22.3-6.5-33.7-28-26.3-50c1.8-5.5,4.4-10.7,6.3-16.1
	c5.6-15.5,2.3-29.1-9.2-40.7c-4.6-4.5-9.6-8.6-14.1-13.2c-15.4-16.1-14.8-38.8,1.3-54.2c3.5-3.3,7.1-6.5,10.6-9.9
	c13.3-13,17.7-28,10.3-45.6c-1.9-4.4-3.7-8.9-5.3-13.4c-7.4-21.1,2.6-44.3,24.5-48.8c31.4-6.4,44.1-24.1,44.4-55.3
	c0.2-23,21.3-37.8,44.4-34.2c5.4,0.8,10.8,2.1,16.2,2.6c16.7,1.6,29.5-4.8,38.3-19.1c2.7-4.4,5.1-8.9,7.8-13.3
	c12.4-20.2,36.5-25.4,56-12c3.7,2.5,7.1,5.6,10.8,8.1c14,9.7,30,9.9,44.3,0.7c4.9-3.1,9.4-6.7,14.4-9.7c18.6-11,40.8-5.4,52,13.1
	c0.5,0.8,1.1,1.6,1.5,2.5c13.2,28.2,30,35.3,59.1,28.4c24.3-5.7,43.8,11.3,45.4,36.2c0.4,5.8,0.5,11.6,1.4,17.3
	c2.7,16.2,12.2,26.5,27.9,31.1c4.3,1.3,8.7,2.2,13,3.5C680.2,143.9,690.7,158.1,691.6,176.4L691.6,176.4z M611.1,284.7
	C611,182.3,528,99.5,425.4,99.6c-103,0.1-185.8,83.2-185.5,186.3c0.2,101.8,83.5,185.1,185,185.1
	C527.6,470.9,611.3,387.2,611.1,284.7z"/>
<path class="st0" d="M454.2,622.8c16.8,0,33,2.2,48.4-0.5c24.8-4.4,43.6-19.4,57.6-40.5c1.9-2.8,6.4-6.2,9.1-5.8
	c18.2,3.2,35.2-1,52.5-7.7c1.4,2.9,2.9,5.6,4,8.5c28,70.2,56,140.3,83.6,210.6c1.8,4.5,0.7,10.1,0.9,15.2
	c-5.1,0.2-10.6,1.7-15.3,0.3c-24.7-7.3-49.2-15-73.6-23.1c-7.3-2.4-11.1-0.8-14.8,5.8c-13.1,23.6-26.5,47.1-40.2,70.3
	c-2.2,3.7-6.8,8.3-10.3,8.2c-3.3-0.1-7.8-5.2-9.4-9c-30.7-76-61.1-152.1-91.6-228.2C454.9,625.6,454.6,624.4,454.2,622.8
	L454.2,622.8z"/>
<path class="st0" d="M228.6,567.4c17.1,7.3,34.8,10.3,53.5,7.5c1.7-0.3,4.5,2,5.7,3.8c24.6,37.6,59.1,51.6,103,43
	c1.2-0.2,2.3-0.4,4.5-0.7c-1.2,3.7-2,6.4-3,9c-29.3,73.7-58.6,147.4-88.2,221c-1.8,4.5-6.5,7.9-9.8,11.9c-3.9-3.3-9-5.9-11.5-10.1
	c-13.5-22.7-26.5-45.6-39.2-68.6c-3.8-6.8-7.8-8.7-15.5-6.1c-25.6,8.5-51.4,16.5-77.2,24.2c-3.4,1-8.7,0.1-11.1-2.2
	c-1.9-1.8-2-7.3-0.8-10.4c29-73.2,58.3-146.2,87.5-219.2C227,569.5,227.6,568.8,228.6,567.4L228.6,567.4z"/>
<path class="st0" d="M412.6,398.7c-14-6.1-26.6-10.3-37.8-16.8c-17.5-10.1-24.6-27.2-26.6-46.7c-0.8-7.7,2.1-11.5,10.1-11.6
	c9-0.1,18-0.2,27-1c9.1-0.8,13.4,2.3,14.9,11.8c2.6,16.2,14.3,25,29.8,24c9.1-0.6,15.9-4.6,18.9-13.8c3.6-11.2,0.7-24.5-7.9-30.8
	c-5.9-4.3-12.8-7.3-19.3-10.7c-12.3-6.3-24.9-12.1-36.8-18.9c-23.2-13.2-31.1-34.3-28.3-59.7c2.9-25.5,18.6-40.8,42.1-48.8
	c4.9-1.7,9.9-2.8,15.8-4.4c0-7.3,0.1-14.6,0-21.9c-0.2-7.1,2.4-10.7,10.1-10.6c28,0.5,24.7-3.1,24.5,23.8c-0.1,7.2,1.7,10.6,9,12.9
	c25.2,8.2,39.9,26.1,44.5,52c2.1,11.5-0.5,14.5-12.3,15c-9.3,0.4-18.7,0.4-28,0.7c-6.1,0.2-9.9-2.2-10.5-8.6
	c-0.1-0.9-0.4-1.9-0.6-2.8c-3-13.4-10.3-20.7-21.3-21.4c-10.2-0.6-19.7,5.3-22.9,14.3c-4.4,12.5-0.8,25.9,10.2,32.2
	c12.2,7,25.2,12.7,37.8,19.2c6.3,3.3,12.3,7,18.3,10.7c22.8,14.5,30.1,35.9,26.5,61.6c-3.7,26-20,40.7-44.5,47.5
	c-2.5,0.7-4.9,1.6-7.9,2.5c0,7.5-0.1,14.9,0,22.2c0.1,6-2.5,9-8.5,9.2c-0.3,0-0.6,0-1,0c-25.1,1.8-25.2,1.7-25.3-23.5
	C412.6,403.2,412.6,400.1,412.6,398.7L412.6,398.7z"/>
</svg>
